<svg xmlns="http://www.w3.org/2000/svg" data-name="Слой 1" viewBox="0 0 175.82993 294.998775" x="0px" y="0px"><title>71</title><path d="M382.915,232.87457V191.45838a14.47456,14.47456,0,0,0-14.45789-14.45789H221.54293A14.47456,14.47456,0,0,0,207.085,191.45838v41.41619a14.47456,14.47456,0,0,0,14.45789,14.45789h14.71989a32.51216,32.51216,0,0,1-11.41164,11.10842A33.77638,33.77638,0,0,0,207.085,288.10531v97.54441a27.3809,27.3809,0,0,0,27.34979,27.34979H355.56517A27.3809,27.3809,0,0,0,382.915,385.64972V288.10531a33.77638,33.77638,0,0,0-17.76614-29.66443,32.463,32.463,0,0,1-11.4228-11.10842h14.731A14.47456,14.47456,0,0,0,382.915,232.87457Zm-11.722-41.41619v41.41619a2.7718,2.7718,0,0,1-2.7359,2.73589h-8.20539v-46.888h8.20539A2.7718,2.7718,0,0,1,371.193,191.45838Zm-39.66018,44.15208v-46.888h16.99689v46.888Zm-86.15667,0v-46.888H262.373v46.888Zm28.71889-46.888h16.9969v46.888H274.095Zm28.71889,0h16.99689v46.888H302.8139ZM218.807,232.87457V191.45838a2.7718,2.7718,0,0,1,2.7359-2.7359h12.1112v46.888h-12.1112A2.7718,2.7718,0,0,1,218.807,232.87457ZM359.558,268.74342a22.06809,22.06809,0,0,1,11.635,19.36189v80.15831H284.30368a5.861,5.861,0,1,0,0,11.722H371.193v5.66411a15.64512,15.64512,0,0,1-15.6278,15.6278H234.43483a15.64512,15.64512,0,0,1-15.6278-15.6278V288.10531a21.64767,21.64767,0,0,1,.17114-2.48176H306.722a5.861,5.861,0,0,0,0-11.722H224.11555a22.3729,22.3729,0,0,1,6.32648-5.15813c10.66412-5.785,16.59137-15.83214,19.2178-21.411h90.68034C342.9666,252.91128,348.89385,262.9584,359.558,268.74342Z" transform="translate(-207.08504 -177.00049)"/><text x="0" y="250.99902" fill="#000000" font-size="5px" font-weight="bold" font-family="'Helvetica Neue', Helvetica, Arial-Unicode, Arial, Sans-serif">Created by Chintuza</text><text x="0" y="255.99902" fill="#000000" font-size="5px" font-weight="bold" font-family="'Helvetica Neue', Helvetica, Arial-Unicode, Arial, Sans-serif">from the Noun Project</text></svg>